<svg width="80" height="80" viewBox="0 0 80 80" fill="none" xmlns="http://www.w3.org/2000/svg">
<path d="M39.56 0C17.747 0 0 17.747 0 39.56C0 61.373 17.747 79.12 39.56 79.12C61.373 79.12 79.12 61.373 79.12 39.56C79.12 31.6532 76.7802 24.2855 72.7674 18.097L71.2322 19.6322L70.2512 20.6131C73.6706 26.1292 75.68 32.606 75.68 39.56C75.68 59.4776 59.4776 75.68 39.56 75.68C19.6424 75.68 3.44 59.4776 3.44 39.56C3.44 19.6424 19.6424 3.44 39.56 3.44C48.0109 3.44 55.763 6.394 61.92 11.2774V14.7678L57.7309 18.957C52.8799 14.6671 46.5292 12.04 39.56 12.04C24.3862 12.04 12.04 24.3862 12.04 39.56C12.04 54.7338 24.3862 67.08 39.56 67.08C54.7338 67.08 67.08 54.7338 67.08 39.56C67.08 33.8341 65.3179 28.5119 62.313 24.1035L59.8204 26.5962C62.2249 30.344 63.64 34.7853 63.64 39.56C63.64 52.8384 52.8384 63.64 39.56 63.64C26.2816 63.64 15.48 52.8384 15.48 39.56C15.48 26.2816 26.2816 15.48 39.56 15.48C45.5822 15.48 51.0756 17.719 55.2987 21.3891L49.198 27.4898C46.5516 25.3671 43.209 24.08 39.56 24.08C31.0254 24.08 24.08 31.0254 24.08 39.56C24.08 48.0946 31.0254 55.04 39.56 55.04C48.0946 55.04 55.04 48.0946 55.04 39.56C55.04 37.1744 54.4815 34.9244 53.5148 32.9051L50.8912 35.5254C51.3418 36.7879 51.6 38.1444 51.6 39.56C51.6 46.1992 46.1992 51.6 39.56 51.6C32.9208 51.6 27.52 46.1992 27.52 39.56C27.52 32.9208 32.9208 27.52 39.56 27.52C42.2603 27.52 44.746 28.4248 46.7558 29.932L40.4469 36.2409C40.1578 36.1622 39.8596 36.1215 39.56 36.12C38.6477 36.12 37.7727 36.4824 37.1276 37.1276C36.4824 37.7727 36.12 38.6477 36.12 39.56C36.12 40.4723 36.4824 41.3473 37.1276 41.9924C37.7727 42.6376 38.6477 43 39.56 43C40.4723 43 41.3473 42.6376 41.9924 41.9924C42.6376 41.3473 43 40.4723 43 39.56C42.9999 39.2594 42.9603 38.9601 42.8824 38.6698L64.3522 17.2H68.8L77.4 8.6H70.52V1.72L63.8584 8.38164C57.1468 3.13787 48.7179 0 39.56 0Z" fill="url(#paint0_linear_51_1175)"/>
<defs>
<linearGradient id="paint0_linear_51_1175" x1="39.56" y1="0" x2="39.56" y2="79.12" gradientUnits="userSpaceOnUse">
<stop stop-color="#FFC619"/>
<stop offset="0.479167" stop-color="#F69020"/>
<stop offset="1" stop-color="#EA422A"/>
</linearGradient>
</defs>
</svg>
