<svg width="83" height="78" viewBox="0 0 83 78" fill="none" xmlns="http://www.w3.org/2000/svg">
<path d="M56.7512 0L55.8175 1.40063L41.085 22.6175L28.1162 26.4563L28.0644 26.5081H28.0125C26.372 27.1241 25.101 28.2005 24.1219 29.5688L24.07 29.6206V29.6725L12.865 46.9469L12.45 45.5981L1.55625 48.8663L0 49.385L0.466875 50.9413L7.93687 75.9969L8.40375 77.605L10.0119 77.1381L19.2975 74.285L20.9056 73.8181L20.3869 72.2619L19.4531 69.0975L32.4738 66.1925C36.4746 65.2847 40.1188 63.1254 42.6931 59.8119L43.3156 59.0338L49.5925 63.4431L50.9412 64.4288L51.875 63.0281L81.9625 19.5569L82.8962 18.2081L81.4956 17.2225L58.1 0.985625L56.7512 0ZM57.5812 4.61688L78.2794 19.0381L66.4 36.2088C67.9238 31.352 65.5895 25.5355 60.6419 22.0988C60.6289 22.0923 60.6548 22.0534 60.6419 22.0469C60.6289 22.0339 60.603 22.0598 60.59 22.0469C57.7045 20.0108 54.2742 19.1613 51.1488 19.4531C49.3591 19.6217 47.6796 20.1923 46.2206 21.1131L57.5812 4.61688ZM64.5325 14.4731C63.6247 14.4666 62.7493 14.9141 62.1981 15.7181C61.3162 17.002 61.6405 18.7269 62.9244 19.6088C64.2083 20.4906 65.985 20.1664 66.8669 18.8825C67.7487 17.5986 67.4245 15.8738 66.1406 14.9919C65.6608 14.6612 65.0772 14.4796 64.5325 14.4731ZM51.5637 22.7213C53.8592 22.5138 56.4205 23.1427 58.6706 24.7444L58.7225 24.7963C63.4237 28.032 64.8243 33.5177 62.4575 36.935H62.4056C61.2125 38.7766 59.2218 39.7752 56.7512 39.8919C56.8355 37.992 56.1612 36.0985 54.6763 34.7044C54.6633 34.6914 54.6373 34.7173 54.6244 34.7044C52.3613 32.4673 48.8338 32.0912 46.2206 33.8225C44.6384 30.9759 44.5217 27.8828 46.065 25.6781C47.2452 23.9727 49.2683 22.9288 51.5637 22.7213ZM38.1281 26.975L30.1912 39.4769L29.3094 40.9294L30.7619 41.7594L36.0531 44.9238L37.0387 45.5463L37.9725 44.7681L46.3762 37.9725C46.8042 37.8363 47.1544 37.538 47.3619 37.1425L47.7769 36.8313C49.0997 35.7289 51.1228 35.8197 52.3419 37.0388V37.0906H52.3937C53.7555 38.3356 53.8787 40.2809 52.705 41.8113L40.0994 57.7369C38.0244 60.402 35.0545 62.2241 31.7475 62.9763L18.5194 65.9331L13.8506 50.2669L14.3694 50.0594L14.94 49.8519L15.2512 49.385L26.8194 31.54C27.4743 30.6192 28.1487 30.0551 29.1019 29.6725C29.1408 29.6595 29.1667 29.6336 29.2056 29.6206L38.1281 26.975ZM41.915 27.1825C41.273 30.068 41.9215 33.2 43.575 35.9494L36.7794 41.5L33.9263 39.7881L41.915 27.1825ZM63.08 41.0331L50.1112 59.8119L45.3387 56.44L55.2987 43.8863V43.8344H55.3506C55.5062 43.6334 55.6359 43.4259 55.7656 43.2119C58.4631 43.2897 61.0634 42.5959 63.08 41.0331ZM10.2194 49.6963L16.7556 71.6394L10.6344 73.5069L4.09812 51.6156L10.2194 49.6963Z" fill="url(#paint0_linear_51_1165)"/>
<defs>
<linearGradient id="paint0_linear_51_1165" x1="41.4481" y1="0" x2="41.4481" y2="77.605" gradientUnits="userSpaceOnUse">
<stop stop-color="#FFC619"/>
<stop offset="0.494792" stop-color="#F69020"/>
<stop offset="1" stop-color="#EA422A"/>
</linearGradient>
</defs>
</svg>
