<svg width="13" height="13" viewBox="0 0 13 13" fill="none" xmlns="http://www.w3.org/2000/svg">
<path d="M6.67843 0.00264501C3.09639 -0.098917 0.104208 2.73702 0.00264501 6.31905C-0.098917 9.90108 2.73702 12.8972 6.31905 12.9987C9.90108 13.0964 12.8972 10.2644 12.9987 6.67843C13.0183 5.92843 12.905 5.20577 12.6862 4.52999L11.862 5.30733C11.9597 5.74093 12.0105 6.19014 11.9987 6.65499C11.9128 9.68624 9.37764 12.0808 6.34639 11.9987C3.31514 11.9128 0.916708 9.37764 0.998739 6.34639C1.08468 3.31514 3.61983 0.916708 6.65108 0.998739C7.64327 1.02999 8.56515 1.32296 9.35811 1.81124L10.1081 1.1003C9.12374 0.444052 7.95186 0.037802 6.67843 0.00264501ZM11.4987 1.83858L5.49874 7.83858L3.8503 6.19405L3.49874 5.83858L2.79171 6.54561L3.14718 6.89718L5.49874 9.25265L12.2058 2.54561L11.4987 1.83858Z" fill="#F69020"/>
</svg>
