<svg width="68" height="68" viewBox="0 0 68 68" fill="none" xmlns="http://www.w3.org/2000/svg">
<path d="M59.0758 3.56594e-05C57.2964 3.56594e-05 55.5171 0.673004 54.1711 2.01894L51.5192 4.67089C51.0059 5.18418 50.9489 5.99972 51.388 6.58144L48.2855 9.68394C41.9607 16.0087 36.6854 17.925 31.3871 19.6929C26.0946 21.4609 20.6881 23.0749 15.1332 28.6354L1.7366 42.0264C-0.578867 44.3418 -0.578867 48.1401 1.7366 50.4613L9.2077 57.9324L16.6788 65.3978C19 67.7189 22.7982 67.7189 25.1137 65.3978L38.5046 52.0068C44.0652 46.452 45.6792 41.0454 47.4414 35.7529C49.2094 30.4547 51.1257 25.1793 57.4561 18.8546L60.5586 15.7521C61.1404 16.1912 61.9559 16.1342 62.4692 15.6209L65.1211 12.9689C67.8187 10.2714 67.8187 5.85714 65.1211 3.15957L63.9805 2.01894C62.6289 0.673004 60.8552 -0.00566856 59.0758 3.56594e-05ZM59.0758 2.89722C60.1024 2.90293 61.1289 3.29644 61.9217 4.08347L63.0566 5.2241C64.6364 6.80386 64.6364 9.32464 63.0566 10.9044L61.4483 12.5127L58.0378 9.10222C57.9979 9.0623 57.9523 9.02238 57.9067 8.98816L54.6217 5.70316L56.23 4.08347C57.0227 3.29644 58.0493 2.89722 59.0758 2.89722ZM33.5714 2.90863C32.7673 2.90863 32.1114 3.56449 32.1114 4.36863C32.1114 5.17277 32.7673 5.82863 33.5714 5.82863C34.3756 5.82863 35.0314 5.17277 35.0314 4.36863C35.0314 3.56449 34.3756 2.90863 33.5714 2.90863ZM42.3314 7.28863C41.5273 7.28863 40.8714 7.94449 40.8714 8.74863C40.8714 9.55277 41.5273 10.2086 42.3314 10.2086C43.1356 10.2086 43.7914 9.55277 43.7914 8.74863C43.7914 7.94449 43.1356 7.28863 42.3314 7.28863ZM53.4411 8.65738L58.4827 13.6989L55.3859 16.79C53.1959 18.9857 51.5192 21.0902 50.139 23.1376L44.0025 17.001C46.0499 15.6209 48.1543 13.9442 50.35 11.7542L53.4411 8.65738ZM41.4589 18.5808L48.5593 25.6812C47.3103 27.894 46.3978 30.0213 45.645 32.063L37.7233 29.4168L35.0771 21.4951C37.1188 20.7423 39.2461 19.8298 41.4589 18.5808ZM32.3225 22.4589L35.1854 31.0364C35.328 31.4699 35.6702 31.8121 36.1036 31.9546L44.6811 34.8176C44.6754 34.8176 44.6754 34.8233 44.6754 34.8233C42.8904 40.1843 41.5444 44.8437 36.4458 49.948L23.0549 63.3389C21.8515 64.5366 19.9467 64.5366 18.7433 63.3389L3.80113 48.3967C2.60348 47.1934 2.60348 45.2886 3.80113 44.0852L17.1921 30.6943C22.2964 25.5957 26.9558 24.2497 32.3168 22.4646C32.3168 22.4646 32.3225 22.4646 32.3225 22.4589ZM61.3114 23.3486C60.5073 23.3486 59.8514 24.0045 59.8514 24.8086C59.8514 25.6128 60.5073 26.2686 61.3114 26.2686C62.1156 26.2686 62.7714 25.6128 62.7714 24.8086C62.7714 24.0045 62.1156 23.3486 61.3114 23.3486ZM65.6914 29.1886C64.8873 29.1886 64.2314 29.8445 64.2314 30.6486C64.2314 31.4528 64.8873 32.1086 65.6914 32.1086C66.4956 32.1086 67.1514 31.4528 67.1514 30.6486C67.1514 29.8445 66.4956 29.1886 65.6914 29.1886ZM58.3914 32.1086C57.5873 32.1086 56.9314 32.7645 56.9314 33.5686C56.9314 34.3728 57.5873 35.0286 58.3914 35.0286C59.1956 35.0286 59.8514 34.3728 59.8514 33.5686C59.8514 32.7645 59.1956 32.1086 58.3914 32.1086ZM30.6514 33.5686C29.0375 33.5686 27.7314 34.8746 27.7314 36.4886C27.7314 38.1026 29.0375 39.4086 30.6514 39.4086C32.2654 39.4086 33.5714 38.1026 33.5714 36.4886C33.5714 34.8746 32.2654 33.5686 30.6514 33.5686ZM19.4163 34.3956C19.0342 34.4013 18.6749 34.5553 18.4011 34.8233L9.2077 44.0225C8.63738 44.5928 8.63738 45.5224 9.2077 46.0927L21.0474 57.9324C21.6177 58.497 22.5473 58.497 23.1176 57.9324L32.3111 48.7332C32.8814 48.1629 32.8814 47.239 32.3111 46.6687L20.4714 34.8233C20.1919 34.5496 19.8098 34.3956 19.4163 34.3956ZM19.4334 37.9258L29.2143 47.701L22.0796 54.8299L12.3045 45.0604L19.4334 37.9258Z" fill="url(#paint0_linear_51_1185)"/>
<defs>
<linearGradient id="paint0_linear_51_1185" x1="33.5757" y1="0" x2="33.5757" y2="67.1386" gradientUnits="userSpaceOnUse">
<stop stop-color="#FFC619"/>
<stop offset="0.484375" stop-color="#F69020"/>
<stop offset="1" stop-color="#EA422A"/>
</linearGradient>
</defs>
</svg>
