<svg width="20" height="20" viewBox="0 0 20 20" fill="none" xmlns="http://www.w3.org/2000/svg">
<path d="M9.24 0L0.28875 3.26812C0.121406 3.31078 0 3.48141 0 3.64875V14.6475L9.24 11.34V0ZM10.08 0V11.34L12.6 12.2194V5.15812L16.38 6.54937V13.5581L19.32 14.6081V3.64875C19.32 3.48141 19.1986 3.31078 19.0312 3.26812L10.08 0ZM6.72 4.90875V9.14812L2.94 10.6181V6.41812L6.72 4.90875ZM9.66 12.0881L0.34125 15.4087L9.52875 19.1494C9.57141 19.1494 9.6157 19.1887 9.69938 19.1887C9.74203 19.1887 9.82734 19.192 9.87 19.1494L18.9788 15.4087L9.66 12.0881Z" fill="white"/>
</svg>
